<?xml version="1.0" encoding="utf-8" standalone="no"?>
<!DOCTYPE svg PUBLIC "-//W3C//DTD SVG 1.1//EN"
  "http://www.w3.org/Graphics/SVG/1.1/DTD/svg11.dtd">
<svg xmlns:xlink="http://www.w3.org/1999/xlink" width="599.285625pt" height="336.81125pt" viewBox="0 0 599.285625 336.81125" xmlns="http://www.w3.org/2000/svg" version="1.1">
 <metadata>
  <rdf:RDF xmlns:dc="http://purl.org/dc/elements/1.1/" xmlns:cc="http://creativecommons.org/ns#" xmlns:rdf="http://www.w3.org/1999/02/22-rdf-syntax-ns#">
   <cc:Work>
    <dc:type rdf:resource="http://purl.org/dc/dcmitype/StillImage"/>
    <dc:date>2025-12-06T23:17:16.889920</dc:date>
    <dc:format>image/svg+xml</dc:format>
    <dc:creator>
     <cc:Agent>
      <dc:title>Matplotlib v3.10.7, https://matplotlib.org/</dc:title>
     </cc:Agent>
    </dc:creator>
   </cc:Work>
  </rdf:RDF>
 </metadata>
 <defs>
  <style type="text/css">*{stroke-linejoin: round; stroke-linecap: butt}</style>
 </defs>
 <g id="figure_1">
  <g id="patch_1">
   <path d="M -0 336.81125 
L 599.285625 336.81125 
L 599.285625 0 
L -0 0 
z
" style="fill: #ffffff"/>
  </g>
  <g id="axes_1">
   <g id="patch_2">
    <path d="M 89.887812 298.976875 
L 509.397813 298.976875 
L 509.397813 22.318125 
L 89.887812 22.318125 
z
" style="fill: #ffffff"/>
   </g>
   <g id="FillBetweenPolyCollection_1">
    <defs>
     <path id="mcf267d9f6f" d="M 161.253249 -50.409773 
L 158.359043 -50.409773 
L 157.823211 -52.950257 
L 157.156334 -55.490742 
L 156.352472 -58.031226 
L 155.414922 -60.57171 
L 154.35828 -63.112195 
L 153.209403 -65.652679 
L 152.006863 -68.193163 
L 150.79862 -70.733648 
L 149.637995 -73.274132 
L 148.578322 -75.814617 
L 147.667007 -78.355101 
L 146.939892 -80.895585 
L 146.416865 -83.43607 
L 146.099479 -85.976554 
L 145.971025 -88.517039 
L 145.999009 -91.057523 
L 146.139614 -93.598007 
L 146.343336 -96.138492 
L 146.560844 -98.678976 
L 146.748136 -101.219461 
L 146.870307 -103.759945 
L 146.903525 -106.300429 
L 146.835205 -108.840914 
L 146.662664 -111.381398 
L 146.390723 -113.921882 
L 146.028832 -116.462367 
L 145.588232 -119.002851 
L 145.079567 -121.543336 
L 144.511215 -124.08382 
L 143.888449 -126.624304 
L 143.213395 -129.164789 
L 142.485698 -131.705273 
L 141.703672 -134.245758 
L 140.865724 -136.786242 
L 139.971789 -139.326726 
L 139.024533 -141.867211 
L 138.030095 -144.407695 
L 136.998203 -146.94818 
L 135.941584 -149.488664 
L 134.874671 -152.029148 
L 133.811747 -154.569633 
L 132.76476 -157.110117 
L 131.741139 -159.650601 
L 130.741977 -162.191086 
L 129.760956 -164.73157 
L 128.784285 -167.272055 
L 127.791808 -169.812539 
L 126.759242 -172.353023 
L 125.661312 -174.893508 
L 124.475372 -177.433992 
L 123.184982 -179.974477 
L 121.782906 -182.514961 
L 120.27303 -185.055445 
L 118.670906 -187.59593 
L 117.002817 -190.136414 
L 115.303521 -192.676899 
L 113.613008 -195.217383 
L 111.972807 -197.757867 
L 110.422358 -200.298352 
L 108.995973 -202.838836 
L 107.720783 -205.37932 
L 106.615871 -207.919805 
L 105.692616 -210.460289 
L 104.95611 -213.000774 
L 104.407321 -215.541258 
L 104.045655 -218.081742 
L 103.871479 -220.622227 
L 103.888246 -223.162711 
L 104.103905 -225.703196 
L 104.531406 -228.24368 
L 105.188211 -230.784164 
L 106.094859 -233.324649 
L 107.272703 -235.865133 
L 108.741063 -238.405618 
L 110.514082 -240.946102 
L 112.597608 -243.486586 
L 114.986468 -246.027071 
L 117.662469 -248.567555 
L 120.593437 -251.108039 
L 123.733507 -253.648524 
L 127.02474 -256.189008 
L 130.400015 -258.729493 
L 133.786944 -261.269977 
L 137.112407 -263.810461 
L 140.30724 -266.350946 
L 143.310536 -268.89143 
L 146.073091 -271.431915 
L 148.559677 -273.972399 
L 150.74995 -276.512883 
L 152.638046 -279.053368 
L 154.231035 -281.593852 
L 155.546552 -284.134337 
L 156.609972 -286.674821 
L 157.45149 -289.215305 
L 158.103403 -291.75579 
L 158.597815 -294.296274 
L 158.964893 -296.836758 
L 159.231689 -299.377243 
L 159.421499 -301.917727 
L 160.190792 -301.917727 
L 160.190792 -301.917727 
L 160.380602 -299.377243 
L 160.647398 -296.836758 
L 161.014476 -294.296274 
L 161.508889 -291.75579 
L 162.160801 -289.215305 
L 163.00232 -286.674821 
L 164.06574 -284.134337 
L 165.381256 -281.593852 
L 166.974245 -279.053368 
L 168.862342 -276.512883 
L 171.052615 -273.972399 
L 173.5392 -271.431915 
L 176.301756 -268.89143 
L 179.305051 -266.350946 
L 182.499885 -263.810461 
L 185.825348 -261.269977 
L 189.212276 -258.729493 
L 192.587552 -256.189008 
L 195.878785 -253.648524 
L 199.018854 -251.108039 
L 201.949823 -248.567555 
L 204.625823 -246.027071 
L 207.014683 -243.486586 
L 209.09821 -240.946102 
L 210.871229 -238.405618 
L 212.339589 -235.865133 
L 213.517432 -233.324649 
L 214.42408 -230.784164 
L 215.080886 -228.24368 
L 215.508386 -225.703196 
L 215.724045 -223.162711 
L 215.740813 -220.622227 
L 215.566637 -218.081742 
L 215.204971 -215.541258 
L 214.656182 -213.000774 
L 213.919675 -210.460289 
L 212.996421 -207.919805 
L 211.891509 -205.37932 
L 210.616319 -202.838836 
L 209.189934 -200.298352 
L 207.639484 -197.757867 
L 205.999284 -195.217383 
L 204.308771 -192.676899 
L 202.609474 -190.136414 
L 200.941386 -187.59593 
L 199.339262 -185.055445 
L 197.829386 -182.514961 
L 196.427309 -179.974477 
L 195.13692 -177.433992 
L 193.950979 -174.893508 
L 192.85305 -172.353023 
L 191.820484 -169.812539 
L 190.828007 -167.272055 
L 189.851336 -164.73157 
L 188.870315 -162.191086 
L 187.871153 -159.650601 
L 186.847532 -157.110117 
L 185.800545 -154.569633 
L 184.737621 -152.029148 
L 183.670708 -149.488664 
L 182.614089 -146.94818 
L 181.582197 -144.407695 
L 180.587759 -141.867211 
L 179.640503 -139.326726 
L 178.746568 -136.786242 
L 177.908619 -134.245758 
L 177.126593 -131.705273 
L 176.398897 -129.164789 
L 175.723843 -126.624304 
L 175.101076 -124.08382 
L 174.532725 -121.543336 
L 174.02406 -119.002851 
L 173.58346 -116.462367 
L 173.221569 -113.921882 
L 172.949627 -111.381398 
L 172.777086 -108.840914 
L 172.708767 -106.300429 
L 172.741985 -103.759945 
L 172.864156 -101.219461 
L 173.051448 -98.678976 
L 173.268955 -96.138492 
L 173.472678 -93.598007 
L 173.613283 -91.057523 
L 173.641266 -88.517039 
L 173.512812 -85.976554 
L 173.195427 -83.43607 
L 172.672399 -80.895585 
L 171.945285 -78.355101 
L 171.03397 -75.814617 
L 169.974297 -73.274132 
L 168.813671 -70.733648 
L 167.605429 -68.193163 
L 166.402889 -65.652679 
L 165.254012 -63.112195 
L 164.197369 -60.57171 
L 163.25982 -58.031226 
L 162.455958 -55.490742 
L 161.789081 -52.950257 
L 161.253249 -50.409773 
z
" style="stroke: #595959; stroke-width: 1.25"/>
    </defs>
    <g clip-path="url(#p9413ee5604)">
     <use xlink:href="#mcf267d9f6f" x="0" y="336.81125" style="fill: #72b6a1; stroke: #595959; stroke-width: 1.25"/>
    </g>
   </g>
   <g id="FillBetweenPolyCollection_2">
    <defs>
     <path id="m09dd074f14" d="M 306.443777 -57.742806 
L 292.841848 -57.742806 
L 290.412957 -59.640757 
L 287.414821 -61.538709 
L 283.827968 -63.436661 
L 279.674523 -65.334613 
L 275.027651 -67.232564 
L 270.016717 -69.130516 
L 264.826293 -71.028468 
L 259.687771 -72.92642 
L 254.863441 -74.824371 
L 250.624227 -76.722323 
L 247.223544 -78.620275 
L 244.870759 -80.518227 
L 243.708146 -82.416179 
L 243.794879 -84.31413 
L 245.100651 -86.212082 
L 247.509909 -88.110034 
L 250.835967 -90.007986 
L 254.842679 -91.905937 
L 259.270218 -93.803889 
L 263.861117 -95.701841 
L 268.383032 -97.599793 
L 272.64558 -99.497744 
L 276.509901 -101.395696 
L 279.89089 -103.293648 
L 282.753165 -105.1916 
L 285.102592 -107.089552 
L 286.975435 -108.987503 
L 288.427089 -110.885455 
L 289.521934 -112.783407 
L 290.325256 -114.681359 
L 290.897642 -116.57931 
L 291.291755 -118.477262 
L 291.551106 -120.375214 
L 291.710269 -122.273166 
L 291.795994 -124.171117 
L 291.828729 -126.069069 
L 291.824188 -127.967021 
L 291.794737 -129.864973 
L 291.75046 -131.762925 
L 291.699866 -133.660876 
L 291.650227 -135.558828 
L 291.607627 -137.45678 
L 291.576776 -139.354732 
L 291.560713 -141.252683 
L 291.560525 -143.150635 
L 291.575194 -145.048587 
L 291.6017 -146.946539 
L 291.635422 -148.84449 
L 291.670864 -150.742442 
L 291.702621 -152.640394 
L 291.726465 -154.538346 
L 291.740369 -156.436298 
L 291.745275 -158.334249 
L 291.745461 -160.232201 
L 291.748386 -162.130153 
L 291.764019 -164.028105 
L 291.803717 -165.926056 
L 291.878821 -167.824008 
L 291.999176 -169.72196 
L 292.171805 -171.619912 
L 292.399926 -173.517863 
L 292.682465 -175.415815 
L 293.014097 -177.313767 
L 293.385811 -179.211719 
L 293.785861 -181.109671 
L 294.200984 -183.007622 
L 294.617678 -184.905574 
L 295.023391 -186.803526 
L 295.407487 -188.701478 
L 295.761902 -190.599429 
L 296.081466 -192.497381 
L 296.363906 -194.395333 
L 296.609587 -196.293285 
L 296.82106 -198.191236 
L 297.002509 -200.089188 
L 297.159158 -201.98714 
L 297.296709 -203.885092 
L 297.420854 -205.783044 
L 297.536871 -207.680995 
L 297.649332 -209.578947 
L 297.761904 -211.476899 
L 297.87724 -213.374851 
L 297.996944 -215.272802 
L 298.1216 -217.170754 
L 298.250857 -219.068706 
L 298.383554 -220.966658 
L 298.517891 -222.864609 
L 298.651625 -224.762561 
L 298.782283 -226.660513 
L 298.907389 -228.558465 
L 299.024665 -230.456417 
L 299.132211 -232.354368 
L 299.22863 -234.25232 
L 299.313102 -236.150272 
L 299.38539 -238.048224 
L 299.445797 -239.946175 
L 299.495077 -241.844127 
L 299.534316 -243.742079 
L 299.564807 -245.640031 
L 299.720818 -245.640031 
L 299.720818 -245.640031 
L 299.751309 -243.742079 
L 299.790548 -241.844127 
L 299.839828 -239.946175 
L 299.900235 -238.048224 
L 299.972523 -236.150272 
L 300.056995 -234.25232 
L 300.153414 -232.354368 
L 300.26096 -230.456417 
L 300.378236 -228.558465 
L 300.503342 -226.660513 
L 300.634 -224.762561 
L 300.767734 -222.864609 
L 300.902071 -220.966658 
L 301.034768 -219.068706 
L 301.164025 -217.170754 
L 301.288681 -215.272802 
L 301.408385 -213.374851 
L 301.523721 -211.476899 
L 301.636293 -209.578947 
L 301.748754 -207.680995 
L 301.864771 -205.783044 
L 301.988916 -203.885092 
L 302.126467 -201.98714 
L 302.283116 -200.089188 
L 302.464565 -198.191236 
L 302.676038 -196.293285 
L 302.921719 -194.395333 
L 303.204159 -192.497381 
L 303.523723 -190.599429 
L 303.878138 -188.701478 
L 304.262234 -186.803526 
L 304.667947 -184.905574 
L 305.084641 -183.007622 
L 305.499764 -181.109671 
L 305.899814 -179.211719 
L 306.271528 -177.313767 
L 306.60316 -175.415815 
L 306.885699 -173.517863 
L 307.11382 -171.619912 
L 307.286449 -169.72196 
L 307.406804 -167.824008 
L 307.481908 -165.926056 
L 307.521606 -164.028105 
L 307.537239 -162.130153 
L 307.540164 -160.232201 
L 307.54035 -158.334249 
L 307.545256 -156.436298 
L 307.55916 -154.538346 
L 307.583004 -152.640394 
L 307.614761 -150.742442 
L 307.650203 -148.84449 
L 307.683925 -146.946539 
L 307.710431 -145.048587 
L 307.7251 -143.150635 
L 307.724912 -141.252683 
L 307.708849 -139.354732 
L 307.677998 -137.45678 
L 307.635398 -135.558828 
L 307.585759 -133.660876 
L 307.535165 -131.762925 
L 307.490888 -129.864973 
L 307.461437 -127.967021 
L 307.456896 -126.069069 
L 307.489631 -124.171117 
L 307.575356 -122.273166 
L 307.734519 -120.375214 
L 307.99387 -118.477262 
L 308.387983 -116.57931 
L 308.960369 -114.681359 
L 309.763691 -112.783407 
L 310.858536 -110.885455 
L 312.31019 -108.987503 
L 314.183033 -107.089552 
L 316.53246 -105.1916 
L 319.394735 -103.293648 
L 322.775724 -101.395696 
L 326.640045 -99.497744 
L 330.902593 -97.599793 
L 335.424508 -95.701841 
L 340.015407 -93.803889 
L 344.442946 -91.905937 
L 348.449658 -90.007986 
L 351.775716 -88.110034 
L 354.184974 -86.212082 
L 355.490746 -84.31413 
L 355.577479 -82.416179 
L 354.414866 -80.518227 
L 352.062081 -78.620275 
L 348.661398 -76.722323 
L 344.422184 -74.824371 
L 339.597854 -72.92642 
L 334.459332 -71.028468 
L 329.268908 -69.130516 
L 324.257974 -67.232564 
L 319.611102 -65.334613 
L 315.457657 -63.436661 
L 311.870804 -61.538709 
L 308.872668 -59.640757 
L 306.443777 -57.742806 
z
" style="stroke: #595959; stroke-width: 1.25"/>
    </defs>
    <g clip-path="url(#p9413ee5604)">
     <use xlink:href="#m09dd074f14" x="0" y="336.81125" style="fill: #e99675; stroke: #595959; stroke-width: 1.25"/>
    </g>
   </g>
   <g id="FillBetweenPolyCollection_3">
    <defs>
     <path id="m5795d3e817" d="M 445.790667 -78.170673 
L 433.168291 -78.170673 
L 429.168977 -78.664428 
L 423.663055 -79.158183 
L 416.691936 -79.651938 
L 408.635422 -80.145693 
L 400.24351 -80.639448 
L 392.551701 -81.133203 
L 386.676855 -81.626958 
L 383.544813 -82.120713 
L 383.641682 -82.614468 
L 386.88226 -83.108223 
L 392.645847 -83.601978 
L 399.961896 -84.095733 
L 407.770298 -84.589489 
L 415.161603 -85.083244 
L 421.525863 -85.576999 
L 426.587058 -86.070754 
L 430.345831 -86.564509 
L 432.977297 -87.058264 
L 434.729223 -87.552019 
L 435.848236 -88.045774 
L 436.541071 -88.539529 
L 436.963617 -89.033284 
L 437.225459 -89.527039 
L 437.399555 -90.020794 
L 437.531485 -90.514549 
L 437.646914 -91.008304 
L 437.757948 -91.502059 
L 437.869037 -91.995814 
L 437.982069 -92.489569 
L 438.099639 -92.983324 
L 438.225708 -93.47708 
L 438.363945 -93.970835 
L 438.515098 -94.46459 
L 438.675126 -94.958345 
L 438.83521 -95.4521 
L 438.983609 -95.945855 
L 439.108378 -96.43961 
L 439.199702 -96.933365 
L 439.251087 -97.42712 
L 439.25947 -97.920875 
L 439.224862 -98.41463 
L 439.150172 -98.908385 
L 439.041499 -99.40214 
L 438.90859 -99.895895 
L 438.764881 -100.38965 
L 438.626585 -100.883405 
L 438.510693 -101.37716 
L 438.432271 -101.870916 
L 438.401772 -102.364671 
L 438.423122 -102.858426 
L 438.493118 -103.352181 
L 438.602262 -103.845936 
L 438.736789 -104.339691 
L 438.881359 -104.833446 
L 439.021762 -105.327201 
L 439.147042 -105.820956 
L 439.25062 -106.314711 
L 439.330333 -106.808466 
L 439.387583 -107.302221 
L 439.426008 -107.795976 
L 439.450128 -108.289731 
L 439.464293 -108.783486 
L 439.472077 -109.277241 
L 439.476073 -109.770996 
L 439.477972 -110.264751 
L 439.478757 -110.758507 
L 439.478907 -111.252262 
L 439.478527 -111.746017 
L 439.477397 -112.239772 
L 439.474927 -112.733527 
L 439.470055 -113.227282 
L 439.461162 -113.721037 
L 439.446091 -114.214792 
L 439.42241 -114.708547 
L 439.388003 -115.202302 
L 439.341954 -115.696057 
L 439.285497 -116.189812 
L 439.222622 -116.683567 
L 439.159873 -117.177322 
L 439.105089 -117.671077 
L 439.065272 -118.164832 
L 439.044261 -118.658587 
L 439.041187 -119.152342 
L 439.050494 -119.646098 
L 439.06376 -120.139853 
L 439.072725 -120.633608 
L 439.072395 -121.127363 
L 439.062948 -121.621118 
L 439.04967 -122.114873 
L 439.040929 -122.608628 
L 439.045048 -123.102383 
L 439.067313 -123.596138 
L 439.108268 -124.089893 
L 439.163806 -124.583648 
L 439.226798 -125.077403 
L 439.289431 -125.571158 
L 439.3453 -126.064913 
L 439.3906 -126.558668 
L 439.424262 -127.052423 
L 439.534697 -127.052423 
L 439.534697 -127.052423 
L 439.568358 -126.558668 
L 439.613658 -126.064913 
L 439.669527 -125.571158 
L 439.73216 -125.077403 
L 439.795152 -124.583648 
L 439.85069 -124.089893 
L 439.891645 -123.596138 
L 439.91391 -123.102383 
L 439.918029 -122.608628 
L 439.909289 -122.114873 
L 439.89601 -121.621118 
L 439.886563 -121.127363 
L 439.886233 -120.633608 
L 439.895198 -120.139853 
L 439.908464 -119.646098 
L 439.917771 -119.152342 
L 439.914697 -118.658587 
L 439.893687 -118.164832 
L 439.853869 -117.671077 
L 439.799086 -117.177322 
L 439.736337 -116.683567 
L 439.673461 -116.189812 
L 439.617004 -115.696057 
L 439.570955 -115.202302 
L 439.536548 -114.708547 
L 439.512868 -114.214792 
L 439.497796 -113.721037 
L 439.488903 -113.227282 
L 439.484032 -112.733527 
L 439.481561 -112.239772 
L 439.480431 -111.746017 
L 439.480051 -111.252262 
L 439.480201 -110.758507 
L 439.480987 -110.264751 
L 439.482885 -109.770996 
L 439.486881 -109.277241 
L 439.494665 -108.783486 
L 439.508831 -108.289731 
L 439.532951 -107.795976 
L 439.571376 -107.302221 
L 439.628626 -106.808466 
L 439.708339 -106.314711 
L 439.811917 -105.820956 
L 439.937196 -105.327201 
L 440.0776 -104.833446 
L 440.222169 -104.339691 
L 440.356696 -103.845936 
L 440.46584 -103.352181 
L 440.535836 -102.858426 
L 440.557186 -102.364671 
L 440.526687 -101.870916 
L 440.448266 -101.37716 
L 440.332374 -100.883405 
L 440.194077 -100.38965 
L 440.050369 -99.895895 
L 439.917459 -99.40214 
L 439.808786 -98.908385 
L 439.734096 -98.41463 
L 439.699488 -97.920875 
L 439.707872 -97.42712 
L 439.759256 -96.933365 
L 439.85058 -96.43961 
L 439.97535 -95.945855 
L 440.123748 -95.4521 
L 440.283832 -94.958345 
L 440.44386 -94.46459 
L 440.595013 -93.970835 
L 440.73325 -93.47708 
L 440.859319 -92.983324 
L 440.976889 -92.489569 
L 441.089921 -91.995814 
L 441.20101 -91.502059 
L 441.312044 -91.008304 
L 441.427473 -90.514549 
L 441.559403 -90.020794 
L 441.733499 -89.527039 
L 441.995341 -89.033284 
L 442.417887 -88.539529 
L 443.110722 -88.045774 
L 444.229735 -87.552019 
L 445.981662 -87.058264 
L 448.613128 -86.564509 
L 452.3719 -86.070754 
L 457.433095 -85.576999 
L 463.797355 -85.083244 
L 471.18866 -84.589489 
L 478.997063 -84.095733 
L 486.313111 -83.601978 
L 492.076698 -83.108223 
L 495.317276 -82.614468 
L 495.414146 -82.120713 
L 492.282103 -81.626958 
L 486.407257 -81.133203 
L 478.715448 -80.639448 
L 470.323536 -80.145693 
L 462.267022 -79.651938 
L 455.295903 -79.158183 
L 449.789982 -78.664428 
L 445.790667 -78.170673 
z
" style="stroke: #595959; stroke-width: 1.25"/>
    </defs>
    <g clip-path="url(#p9413ee5604)">
     <use xlink:href="#m5795d3e817" x="0" y="336.81125" style="fill: #95a3c3; stroke: #595959; stroke-width: 1.25"/>
    </g>
   </g>
   <g id="matplotlib.axis_1">
    <g id="xtick_1">
     <g id="line2d_1">
      <defs>
       <path id="maa3250c084" d="M 0 0 
L 0 3.5 
" style="stroke: #000000; stroke-width: 0.8"/>
      </defs>
      <g>
       <use xlink:href="#maa3250c084" x="159.806146" y="298.976875" style="stroke: #000000; stroke-width: 0.8"/>
      </g>
     </g>
     <g id="text_1">
      <!-- Central -->
      <g transform="translate(141.600677 313.575312) scale(0.1 -0.1)">
       <defs>
        <path id="DejaVuSans-43" d="M 4122 4306 
L 4122 3641 
Q 3803 3938 3442 4084 
Q 3081 4231 2675 4231 
Q 1875 4231 1450 3742 
Q 1025 3253 1025 2328 
Q 1025 1406 1450 917 
Q 1875 428 2675 428 
Q 3081 428 3442 575 
Q 3803 722 4122 1019 
L 4122 359 
Q 3791 134 3420 21 
Q 3050 -91 2638 -91 
Q 1578 -91 968 557 
Q 359 1206 359 2328 
Q 359 3453 968 4101 
Q 1578 4750 2638 4750 
Q 3056 4750 3426 4639 
Q 3797 4528 4122 4306 
z
" transform="scale(0.015625)"/>
        <path id="DejaVuSans-65" d="M 3597 1894 
L 3597 1613 
L 953 1613 
Q 991 1019 1311 708 
Q 1631 397 2203 397 
Q 2534 397 2845 478 
Q 3156 559 3463 722 
L 3463 178 
Q 3153 47 2828 -22 
Q 2503 -91 2169 -91 
Q 1331 -91 842 396 
Q 353 884 353 1716 
Q 353 2575 817 3079 
Q 1281 3584 2069 3584 
Q 2775 3584 3186 3129 
Q 3597 2675 3597 1894 
z
M 3022 2063 
Q 3016 2534 2758 2815 
Q 2500 3097 2075 3097 
Q 1594 3097 1305 2825 
Q 1016 2553 972 2059 
L 3022 2063 
z
" transform="scale(0.015625)"/>
        <path id="DejaVuSans-6e" d="M 3513 2113 
L 3513 0 
L 2938 0 
L 2938 2094 
Q 2938 2591 2744 2837 
Q 2550 3084 2163 3084 
Q 1697 3084 1428 2787 
Q 1159 2491 1159 1978 
L 1159 0 
L 581 0 
L 581 3500 
L 1159 3500 
L 1159 2956 
Q 1366 3272 1645 3428 
Q 1925 3584 2291 3584 
Q 2894 3584 3203 3211 
Q 3513 2838 3513 2113 
z
" transform="scale(0.015625)"/>
        <path id="DejaVuSans-74" d="M 1172 4494 
L 1172 3500 
L 2356 3500 
L 2356 3053 
L 1172 3053 
L 1172 1153 
Q 1172 725 1289 603 
Q 1406 481 1766 481 
L 2356 481 
L 2356 0 
L 1766 0 
Q 1100 0 847 248 
Q 594 497 594 1153 
L 594 3053 
L 172 3053 
L 172 3500 
L 594 3500 
L 594 4494 
L 1172 4494 
z
" transform="scale(0.015625)"/>
        <path id="DejaVuSans-72" d="M 2631 2963 
Q 2534 3019 2420 3045 
Q 2306 3072 2169 3072 
Q 1681 3072 1420 2755 
Q 1159 2438 1159 1844 
L 1159 0 
L 581 0 
L 581 3500 
L 1159 3500 
L 1159 2956 
Q 1341 3275 1631 3429 
Q 1922 3584 2338 3584 
Q 2397 3584 2469 3576 
Q 2541 3569 2628 3553 
L 2631 2963 
z
" transform="scale(0.015625)"/>
        <path id="DejaVuSans-61" d="M 2194 1759 
Q 1497 1759 1228 1600 
Q 959 1441 959 1056 
Q 959 750 1161 570 
Q 1363 391 1709 391 
Q 2188 391 2477 730 
Q 2766 1069 2766 1631 
L 2766 1759 
L 2194 1759 
z
M 3341 1997 
L 3341 0 
L 2766 0 
L 2766 531 
Q 2569 213 2275 61 
Q 1981 -91 1556 -91 
Q 1019 -91 701 211 
Q 384 513 384 1019 
Q 384 1609 779 1909 
Q 1175 2209 1959 2209 
L 2766 2209 
L 2766 2266 
Q 2766 2663 2505 2880 
Q 2244 3097 1772 3097 
Q 1472 3097 1187 3025 
Q 903 2953 641 2809 
L 641 3341 
Q 956 3463 1253 3523 
Q 1550 3584 1831 3584 
Q 2591 3584 2966 3190 
Q 3341 2797 3341 1997 
z
" transform="scale(0.015625)"/>
        <path id="DejaVuSans-6c" d="M 603 4863 
L 1178 4863 
L 1178 0 
L 603 0 
L 603 4863 
z
" transform="scale(0.015625)"/>
       </defs>
       <use xlink:href="#DejaVuSans-43"/>
       <use xlink:href="#DejaVuSans-65" transform="translate(69.824219 0)"/>
       <use xlink:href="#DejaVuSans-6e" transform="translate(131.347656 0)"/>
       <use xlink:href="#DejaVuSans-74" transform="translate(194.726562 0)"/>
       <use xlink:href="#DejaVuSans-72" transform="translate(233.935547 0)"/>
       <use xlink:href="#DejaVuSans-61" transform="translate(275.048828 0)"/>
       <use xlink:href="#DejaVuSans-6c" transform="translate(336.328125 0)"/>
      </g>
     </g>
    </g>
    <g id="xtick_2">
     <g id="line2d_2">
      <g>
       <use xlink:href="#maa3250c084" x="299.642812" y="298.976875" style="stroke: #000000; stroke-width: 0.8"/>
      </g>
     </g>
     <g id="text_2">
      <!-- Inner -->
      <g transform="translate(286.698281 313.575312) scale(0.1 -0.1)">
       <defs>
        <path id="DejaVuSans-49" d="M 628 4666 
L 1259 4666 
L 1259 0 
L 628 0 
L 628 4666 
z
" transform="scale(0.015625)"/>
       </defs>
       <use xlink:href="#DejaVuSans-49"/>
       <use xlink:href="#DejaVuSans-6e" transform="translate(29.492188 0)"/>
       <use xlink:href="#DejaVuSans-6e" transform="translate(92.871094 0)"/>
       <use xlink:href="#DejaVuSans-65" transform="translate(156.25 0)"/>
       <use xlink:href="#DejaVuSans-72" transform="translate(217.773438 0)"/>
      </g>
     </g>
    </g>
    <g id="xtick_3">
     <g id="line2d_3">
      <g>
       <use xlink:href="#maa3250c084" x="439.479479" y="298.976875" style="stroke: #000000; stroke-width: 0.8"/>
      </g>
     </g>
     <g id="text_3">
      <!-- Outer -->
      <g transform="translate(425.282604 313.575312) scale(0.1 -0.1)">
       <defs>
        <path id="DejaVuSans-4f" d="M 2522 4238 
Q 1834 4238 1429 3725 
Q 1025 3213 1025 2328 
Q 1025 1447 1429 934 
Q 1834 422 2522 422 
Q 3209 422 3611 934 
Q 4013 1447 4013 2328 
Q 4013 3213 3611 3725 
Q 3209 4238 2522 4238 
z
M 2522 4750 
Q 3503 4750 4090 4092 
Q 4678 3434 4678 2328 
Q 4678 1225 4090 567 
Q 3503 -91 2522 -91 
Q 1538 -91 948 565 
Q 359 1222 359 2328 
Q 359 3434 948 4092 
Q 1538 4750 2522 4750 
z
" transform="scale(0.015625)"/>
        <path id="DejaVuSans-75" d="M 544 1381 
L 544 3500 
L 1119 3500 
L 1119 1403 
Q 1119 906 1312 657 
Q 1506 409 1894 409 
Q 2359 409 2629 706 
Q 2900 1003 2900 1516 
L 2900 3500 
L 3475 3500 
L 3475 0 
L 2900 0 
L 2900 538 
Q 2691 219 2414 64 
Q 2138 -91 1772 -91 
Q 1169 -91 856 284 
Q 544 659 544 1381 
z
M 1991 3584 
L 1991 3584 
z
" transform="scale(0.015625)"/>
       </defs>
       <use xlink:href="#DejaVuSans-4f"/>
       <use xlink:href="#DejaVuSans-75" transform="translate(78.710938 0)"/>
       <use xlink:href="#DejaVuSans-74" transform="translate(142.089844 0)"/>
       <use xlink:href="#DejaVuSans-65" transform="translate(181.298828 0)"/>
       <use xlink:href="#DejaVuSans-72" transform="translate(242.822266 0)"/>
      </g>
     </g>
    </g>
    <g id="text_4">
     <!-- zoning_tfc -->
     <g transform="translate(274.088906 327.253437) scale(0.1 -0.1)">
      <defs>
       <path id="DejaVuSans-7a" d="M 353 3500 
L 3084 3500 
L 3084 2975 
L 922 459 
L 3084 459 
L 3084 0 
L 275 0 
L 275 525 
L 2438 3041 
L 353 3041 
L 353 3500 
z
" transform="scale(0.015625)"/>
       <path id="DejaVuSans-6f" d="M 1959 3097 
Q 1497 3097 1228 2736 
Q 959 2375 959 1747 
Q 959 1119 1226 758 
Q 1494 397 1959 397 
Q 2419 397 2687 759 
Q 2956 1122 2956 1747 
Q 2956 2369 2687 2733 
Q 2419 3097 1959 3097 
z
M 1959 3584 
Q 2709 3584 3137 3096 
Q 3566 2609 3566 1747 
Q 3566 888 3137 398 
Q 2709 -91 1959 -91 
Q 1206 -91 779 398 
Q 353 888 353 1747 
Q 353 2609 779 3096 
Q 1206 3584 1959 3584 
z
" transform="scale(0.015625)"/>
       <path id="DejaVuSans-69" d="M 603 3500 
L 1178 3500 
L 1178 0 
L 603 0 
L 603 3500 
z
M 603 4863 
L 1178 4863 
L 1178 4134 
L 603 4134 
L 603 4863 
z
" transform="scale(0.015625)"/>
       <path id="DejaVuSans-67" d="M 2906 1791 
Q 2906 2416 2648 2759 
Q 2391 3103 1925 3103 
Q 1463 3103 1205 2759 
Q 947 2416 947 1791 
Q 947 1169 1205 825 
Q 1463 481 1925 481 
Q 2391 481 2648 825 
Q 2906 1169 2906 1791 
z
M 3481 434 
Q 3481 -459 3084 -895 
Q 2688 -1331 1869 -1331 
Q 1566 -1331 1297 -1286 
Q 1028 -1241 775 -1147 
L 775 -588 
Q 1028 -725 1275 -790 
Q 1522 -856 1778 -856 
Q 2344 -856 2625 -561 
Q 2906 -266 2906 331 
L 2906 616 
Q 2728 306 2450 153 
Q 2172 0 1784 0 
Q 1141 0 747 490 
Q 353 981 353 1791 
Q 353 2603 747 3093 
Q 1141 3584 1784 3584 
Q 2172 3584 2450 3431 
Q 2728 3278 2906 2969 
L 2906 3500 
L 3481 3500 
L 3481 434 
z
" transform="scale(0.015625)"/>
       <path id="DejaVuSans-5f" d="M 3263 -1063 
L 3263 -1509 
L -63 -1509 
L -63 -1063 
L 3263 -1063 
z
" transform="scale(0.015625)"/>
       <path id="DejaVuSans-66" d="M 2375 4863 
L 2375 4384 
L 1825 4384 
Q 1516 4384 1395 4259 
Q 1275 4134 1275 3809 
L 1275 3500 
L 2222 3500 
L 2222 3053 
L 1275 3053 
L 1275 0 
L 697 0 
L 697 3053 
L 147 3053 
L 147 3500 
L 697 3500 
L 697 3744 
Q 697 4328 969 4595 
Q 1241 4863 1831 4863 
L 2375 4863 
z
" transform="scale(0.015625)"/>
       <path id="DejaVuSans-63" d="M 3122 3366 
L 3122 2828 
Q 2878 2963 2633 3030 
Q 2388 3097 2138 3097 
Q 1578 3097 1268 2742 
Q 959 2388 959 1747 
Q 959 1106 1268 751 
Q 1578 397 2138 397 
Q 2388 397 2633 464 
Q 2878 531 3122 666 
L 3122 134 
Q 2881 22 2623 -34 
Q 2366 -91 2075 -91 
Q 1284 -91 818 406 
Q 353 903 353 1747 
Q 353 2603 823 3093 
Q 1294 3584 2113 3584 
Q 2378 3584 2631 3529 
Q 2884 3475 3122 3366 
z
" transform="scale(0.015625)"/>
      </defs>
      <use xlink:href="#DejaVuSans-7a"/>
      <use xlink:href="#DejaVuSans-6f" transform="translate(52.490234 0)"/>
      <use xlink:href="#DejaVuSans-6e" transform="translate(113.671875 0)"/>
      <use xlink:href="#DejaVuSans-69" transform="translate(177.050781 0)"/>
      <use xlink:href="#DejaVuSans-6e" transform="translate(204.833984 0)"/>
      <use xlink:href="#DejaVuSans-67" transform="translate(268.212891 0)"/>
      <use xlink:href="#DejaVuSans-5f" transform="translate(331.689453 0)"/>
      <use xlink:href="#DejaVuSans-74" transform="translate(381.689453 0)"/>
      <use xlink:href="#DejaVuSans-66" transform="translate(420.898438 0)"/>
      <use xlink:href="#DejaVuSans-63" transform="translate(456.103516 0)"/>
     </g>
    </g>
   </g>
   <g id="matplotlib.axis_2">
    <g id="ytick_1">
     <g id="line2d_4">
      <defs>
       <path id="m27734b2869" d="M 0 0 
L -3.5 0 
" style="stroke: #000000; stroke-width: 0.8"/>
      </defs>
      <g>
       <use xlink:href="#m27734b2869" x="89.887812" y="254.751052" style="stroke: #000000; stroke-width: 0.8"/>
      </g>
     </g>
     <g id="text_5">
      <!-- 0 -->
      <g transform="translate(76.525312 258.550271) scale(0.1 -0.1)">
       <defs>
        <path id="DejaVuSans-30" d="M 2034 4250 
Q 1547 4250 1301 3770 
Q 1056 3291 1056 2328 
Q 1056 1369 1301 889 
Q 1547 409 2034 409 
Q 2525 409 2770 889 
Q 3016 1369 3016 2328 
Q 3016 3291 2770 3770 
Q 2525 4250 2034 4250 
z
M 2034 4750 
Q 2819 4750 3233 4129 
Q 3647 3509 3647 2328 
Q 3647 1150 3233 529 
Q 2819 -91 2034 -91 
Q 1250 -91 836 529 
Q 422 1150 422 2328 
Q 422 3509 836 4129 
Q 1250 4750 2034 4750 
z
" transform="scale(0.015625)"/>
       </defs>
       <use xlink:href="#DejaVuSans-30"/>
      </g>
     </g>
    </g>
    <g id="ytick_2">
     <g id="line2d_5">
      <g>
       <use xlink:href="#m27734b2869" x="89.887812" y="200.668551" style="stroke: #000000; stroke-width: 0.8"/>
      </g>
     </g>
     <g id="text_6">
      <!-- 20 -->
      <g transform="translate(70.162813 204.46777) scale(0.1 -0.1)">
       <defs>
        <path id="DejaVuSans-32" d="M 1228 531 
L 3431 531 
L 3431 0 
L 469 0 
L 469 531 
Q 828 903 1448 1529 
Q 2069 2156 2228 2338 
Q 2531 2678 2651 2914 
Q 2772 3150 2772 3378 
Q 2772 3750 2511 3984 
Q 2250 4219 1831 4219 
Q 1534 4219 1204 4116 
Q 875 4013 500 3803 
L 500 4441 
Q 881 4594 1212 4672 
Q 1544 4750 1819 4750 
Q 2544 4750 2975 4387 
Q 3406 4025 3406 3419 
Q 3406 3131 3298 2873 
Q 3191 2616 2906 2266 
Q 2828 2175 2409 1742 
Q 1991 1309 1228 531 
z
" transform="scale(0.015625)"/>
       </defs>
       <use xlink:href="#DejaVuSans-32"/>
       <use xlink:href="#DejaVuSans-30" transform="translate(63.623047 0)"/>
      </g>
     </g>
    </g>
    <g id="ytick_3">
     <g id="line2d_6">
      <g>
       <use xlink:href="#m27734b2869" x="89.887812" y="146.58605" style="stroke: #000000; stroke-width: 0.8"/>
      </g>
     </g>
     <g id="text_7">
      <!-- 40 -->
      <g transform="translate(70.162813 150.385268) scale(0.1 -0.1)">
       <defs>
        <path id="DejaVuSans-34" d="M 2419 4116 
L 825 1625 
L 2419 1625 
L 2419 4116 
z
M 2253 4666 
L 3047 4666 
L 3047 1625 
L 3713 1625 
L 3713 1100 
L 3047 1100 
L 3047 0 
L 2419 0 
L 2419 1100 
L 313 1100 
L 313 1709 
L 2253 4666 
z
" transform="scale(0.015625)"/>
       </defs>
       <use xlink:href="#DejaVuSans-34"/>
       <use xlink:href="#DejaVuSans-30" transform="translate(63.623047 0)"/>
      </g>
     </g>
    </g>
    <g id="ytick_4">
     <g id="line2d_7">
      <g>
       <use xlink:href="#m27734b2869" x="89.887812" y="92.503548" style="stroke: #000000; stroke-width: 0.8"/>
      </g>
     </g>
     <g id="text_8">
      <!-- 60 -->
      <g transform="translate(70.162813 96.302767) scale(0.1 -0.1)">
       <defs>
        <path id="DejaVuSans-36" d="M 2113 2584 
Q 1688 2584 1439 2293 
Q 1191 2003 1191 1497 
Q 1191 994 1439 701 
Q 1688 409 2113 409 
Q 2538 409 2786 701 
Q 3034 994 3034 1497 
Q 3034 2003 2786 2293 
Q 2538 2584 2113 2584 
z
M 3366 4563 
L 3366 3988 
Q 3128 4100 2886 4159 
Q 2644 4219 2406 4219 
Q 1781 4219 1451 3797 
Q 1122 3375 1075 2522 
Q 1259 2794 1537 2939 
Q 1816 3084 2150 3084 
Q 2853 3084 3261 2657 
Q 3669 2231 3669 1497 
Q 3669 778 3244 343 
Q 2819 -91 2113 -91 
Q 1303 -91 875 529 
Q 447 1150 447 2328 
Q 447 3434 972 4092 
Q 1497 4750 2381 4750 
Q 2619 4750 2861 4703 
Q 3103 4656 3366 4563 
z
" transform="scale(0.015625)"/>
       </defs>
       <use xlink:href="#DejaVuSans-36"/>
       <use xlink:href="#DejaVuSans-30" transform="translate(63.623047 0)"/>
      </g>
     </g>
    </g>
    <g id="ytick_5">
     <g id="line2d_8">
      <g>
       <use xlink:href="#m27734b2869" x="89.887812" y="38.421047" style="stroke: #000000; stroke-width: 0.8"/>
      </g>
     </g>
     <g id="text_9">
      <!-- 80 -->
      <g transform="translate(70.162813 42.220266) scale(0.1 -0.1)">
       <defs>
        <path id="DejaVuSans-38" d="M 2034 2216 
Q 1584 2216 1326 1975 
Q 1069 1734 1069 1313 
Q 1069 891 1326 650 
Q 1584 409 2034 409 
Q 2484 409 2743 651 
Q 3003 894 3003 1313 
Q 3003 1734 2745 1975 
Q 2488 2216 2034 2216 
z
M 1403 2484 
Q 997 2584 770 2862 
Q 544 3141 544 3541 
Q 544 4100 942 4425 
Q 1341 4750 2034 4750 
Q 2731 4750 3128 4425 
Q 3525 4100 3525 3541 
Q 3525 3141 3298 2862 
Q 3072 2584 2669 2484 
Q 3125 2378 3379 2068 
Q 3634 1759 3634 1313 
Q 3634 634 3220 271 
Q 2806 -91 2034 -91 
Q 1263 -91 848 271 
Q 434 634 434 1313 
Q 434 1759 690 2068 
Q 947 2378 1403 2484 
z
M 1172 3481 
Q 1172 3119 1398 2916 
Q 1625 2713 2034 2713 
Q 2441 2713 2670 2916 
Q 2900 3119 2900 3481 
Q 2900 3844 2670 4047 
Q 2441 4250 2034 4250 
Q 1625 4250 1398 4047 
Q 1172 3844 1172 3481 
z
" transform="scale(0.015625)"/>
       </defs>
       <use xlink:href="#DejaVuSans-38"/>
       <use xlink:href="#DejaVuSans-30" transform="translate(63.623047 0)"/>
      </g>
     </g>
    </g>
   </g>
   <g id="line2d_9">
    <path d="M 159.806146 254.751052 
L 159.806146 66.543948 
" clip-path="url(#p9413ee5604)" style="fill: none; stroke: #595959; stroke-width: 1.875; stroke-linecap: square"/>
   </g>
   <g id="line2d_10">
    <path d="M 159.806146 173.356888 
L 159.806146 104.672111 
" clip-path="url(#p9413ee5604)" style="fill: none; stroke: #595959; stroke-width: 5.625; stroke-linecap: square"/>
   </g>
   <g id="line2d_11">
    <path d="M 159.806146 131.713362 
" clip-path="url(#p9413ee5604)" style="fill: none; stroke: #595959; stroke-width: 1.5; stroke-linecap: square"/>
    <defs>
     <path id="med23d630eb" d="M 2.34375 0 
L -2.34375 -0 
" style="stroke: #ffffff; stroke-width: 1.125"/>
    </defs>
    <g clip-path="url(#p9413ee5604)">
     <use xlink:href="#med23d630eb" x="159.806146" y="131.713362" style="fill: #ffffff; stroke: #ffffff; stroke-width: 1.125"/>
    </g>
   </g>
   <g id="line2d_12">
    <path d="M 299.642812 254.751052 
L 299.642812 171.464 
" clip-path="url(#p9413ee5604)" style="fill: none; stroke: #595959; stroke-width: 1.875; stroke-linecap: square"/>
   </g>
   <g id="line2d_13">
    <path d="M 299.642812 254.751052 
L 299.642812 221.287505 
" clip-path="url(#p9413ee5604)" style="fill: none; stroke: #595959; stroke-width: 5.625; stroke-linecap: square"/>
   </g>
   <g id="line2d_14">
    <path d="M 299.642812 254.210227 
" clip-path="url(#p9413ee5604)" style="fill: none; stroke: #595959; stroke-width: 1.5; stroke-linecap: square"/>
    <g clip-path="url(#p9413ee5604)">
     <use xlink:href="#med23d630eb" x="299.642812" y="254.210227" style="fill: #ffffff; stroke: #ffffff; stroke-width: 1.125"/>
    </g>
   </g>
   <g id="line2d_15">
    <path d="M 439.479479 254.751052 
L 439.479479 252.858165 
" clip-path="url(#p9413ee5604)" style="fill: none; stroke: #595959; stroke-width: 1.875; stroke-linecap: square"/>
   </g>
   <g id="line2d_16">
    <path d="M 439.479479 254.751052 
L 439.479479 253.939815 
" clip-path="url(#p9413ee5604)" style="fill: none; stroke: #595959; stroke-width: 5.625; stroke-linecap: square"/>
   </g>
   <g id="line2d_17">
    <path d="M 439.479479 254.751052 
" clip-path="url(#p9413ee5604)" style="fill: none; stroke: #595959; stroke-width: 1.5; stroke-linecap: square"/>
    <g clip-path="url(#p9413ee5604)">
     <use xlink:href="#med23d630eb" x="439.479479" y="254.751052" style="fill: #ffffff; stroke: #ffffff; stroke-width: 1.125"/>
    </g>
   </g>
   <g id="patch_3">
    <path d="M 89.887812 298.976875 
L 89.887812 22.318125 
" style="fill: none; stroke: #000000; stroke-width: 0.8; stroke-linejoin: miter; stroke-linecap: square"/>
   </g>
   <g id="patch_4">
    <path d="M 509.397813 298.976875 
L 509.397813 22.318125 
" style="fill: none; stroke: #000000; stroke-width: 0.8; stroke-linejoin: miter; stroke-linecap: square"/>
   </g>
   <g id="patch_5">
    <path d="M 89.887813 298.976875 
L 509.397813 298.976875 
" style="fill: none; stroke: #000000; stroke-width: 0.8; stroke-linejoin: miter; stroke-linecap: square"/>
   </g>
   <g id="patch_6">
    <path d="M 89.887813 22.318125 
L 509.397813 22.318125 
" style="fill: none; stroke: #000000; stroke-width: 0.8; stroke-linejoin: miter; stroke-linecap: square"/>
   </g>
   <g id="text_10">
    <!-- Violin Plot of percentage of jobs accessible within 60 minutes using public transportation by zone -->
    <g transform="translate(7.2 16.318125) scale(0.12 -0.12)">
     <defs>
      <path id="DejaVuSans-56" d="M 1831 0 
L 50 4666 
L 709 4666 
L 2188 738 
L 3669 4666 
L 4325 4666 
L 2547 0 
L 1831 0 
z
" transform="scale(0.015625)"/>
      <path id="DejaVuSans-20" transform="scale(0.015625)"/>
      <path id="DejaVuSans-50" d="M 1259 4147 
L 1259 2394 
L 2053 2394 
Q 2494 2394 2734 2622 
Q 2975 2850 2975 3272 
Q 2975 3691 2734 3919 
Q 2494 4147 2053 4147 
L 1259 4147 
z
M 628 4666 
L 2053 4666 
Q 2838 4666 3239 4311 
Q 3641 3956 3641 3272 
Q 3641 2581 3239 2228 
Q 2838 1875 2053 1875 
L 1259 1875 
L 1259 0 
L 628 0 
L 628 4666 
z
" transform="scale(0.015625)"/>
      <path id="DejaVuSans-70" d="M 1159 525 
L 1159 -1331 
L 581 -1331 
L 581 3500 
L 1159 3500 
L 1159 2969 
Q 1341 3281 1617 3432 
Q 1894 3584 2278 3584 
Q 2916 3584 3314 3078 
Q 3713 2572 3713 1747 
Q 3713 922 3314 415 
Q 2916 -91 2278 -91 
Q 1894 -91 1617 61 
Q 1341 213 1159 525 
z
M 3116 1747 
Q 3116 2381 2855 2742 
Q 2594 3103 2138 3103 
Q 1681 3103 1420 2742 
Q 1159 2381 1159 1747 
Q 1159 1113 1420 752 
Q 1681 391 2138 391 
Q 2594 391 2855 752 
Q 3116 1113 3116 1747 
z
" transform="scale(0.015625)"/>
      <path id="DejaVuSans-6a" d="M 603 3500 
L 1178 3500 
L 1178 -63 
Q 1178 -731 923 -1031 
Q 669 -1331 103 -1331 
L -116 -1331 
L -116 -844 
L 38 -844 
Q 366 -844 484 -692 
Q 603 -541 603 -63 
L 603 3500 
z
M 603 4863 
L 1178 4863 
L 1178 4134 
L 603 4134 
L 603 4863 
z
" transform="scale(0.015625)"/>
      <path id="DejaVuSans-62" d="M 3116 1747 
Q 3116 2381 2855 2742 
Q 2594 3103 2138 3103 
Q 1681 3103 1420 2742 
Q 1159 2381 1159 1747 
Q 1159 1113 1420 752 
Q 1681 391 2138 391 
Q 2594 391 2855 752 
Q 3116 1113 3116 1747 
z
M 1159 2969 
Q 1341 3281 1617 3432 
Q 1894 3584 2278 3584 
Q 2916 3584 3314 3078 
Q 3713 2572 3713 1747 
Q 3713 922 3314 415 
Q 2916 -91 2278 -91 
Q 1894 -91 1617 61 
Q 1341 213 1159 525 
L 1159 0 
L 581 0 
L 581 4863 
L 1159 4863 
L 1159 2969 
z
" transform="scale(0.015625)"/>
      <path id="DejaVuSans-73" d="M 2834 3397 
L 2834 2853 
Q 2591 2978 2328 3040 
Q 2066 3103 1784 3103 
Q 1356 3103 1142 2972 
Q 928 2841 928 2578 
Q 928 2378 1081 2264 
Q 1234 2150 1697 2047 
L 1894 2003 
Q 2506 1872 2764 1633 
Q 3022 1394 3022 966 
Q 3022 478 2636 193 
Q 2250 -91 1575 -91 
Q 1294 -91 989 -36 
Q 684 19 347 128 
L 347 722 
Q 666 556 975 473 
Q 1284 391 1588 391 
Q 1994 391 2212 530 
Q 2431 669 2431 922 
Q 2431 1156 2273 1281 
Q 2116 1406 1581 1522 
L 1381 1569 
Q 847 1681 609 1914 
Q 372 2147 372 2553 
Q 372 3047 722 3315 
Q 1072 3584 1716 3584 
Q 2034 3584 2315 3537 
Q 2597 3491 2834 3397 
z
" transform="scale(0.015625)"/>
      <path id="DejaVuSans-77" d="M 269 3500 
L 844 3500 
L 1563 769 
L 2278 3500 
L 2956 3500 
L 3675 769 
L 4391 3500 
L 4966 3500 
L 4050 0 
L 3372 0 
L 2619 2869 
L 1863 0 
L 1184 0 
L 269 3500 
z
" transform="scale(0.015625)"/>
      <path id="DejaVuSans-68" d="M 3513 2113 
L 3513 0 
L 2938 0 
L 2938 2094 
Q 2938 2591 2744 2837 
Q 2550 3084 2163 3084 
Q 1697 3084 1428 2787 
Q 1159 2491 1159 1978 
L 1159 0 
L 581 0 
L 581 4863 
L 1159 4863 
L 1159 2956 
Q 1366 3272 1645 3428 
Q 1925 3584 2291 3584 
Q 2894 3584 3203 3211 
Q 3513 2838 3513 2113 
z
" transform="scale(0.015625)"/>
      <path id="DejaVuSans-6d" d="M 3328 2828 
Q 3544 3216 3844 3400 
Q 4144 3584 4550 3584 
Q 5097 3584 5394 3201 
Q 5691 2819 5691 2113 
L 5691 0 
L 5113 0 
L 5113 2094 
Q 5113 2597 4934 2840 
Q 4756 3084 4391 3084 
Q 3944 3084 3684 2787 
Q 3425 2491 3425 1978 
L 3425 0 
L 2847 0 
L 2847 2094 
Q 2847 2600 2669 2842 
Q 2491 3084 2119 3084 
Q 1678 3084 1418 2786 
Q 1159 2488 1159 1978 
L 1159 0 
L 581 0 
L 581 3500 
L 1159 3500 
L 1159 2956 
Q 1356 3278 1631 3431 
Q 1906 3584 2284 3584 
Q 2666 3584 2933 3390 
Q 3200 3197 3328 2828 
z
" transform="scale(0.015625)"/>
      <path id="DejaVuSans-79" d="M 2059 -325 
Q 1816 -950 1584 -1140 
Q 1353 -1331 966 -1331 
L 506 -1331 
L 506 -850 
L 844 -850 
Q 1081 -850 1212 -737 
Q 1344 -625 1503 -206 
L 1606 56 
L 191 3500 
L 800 3500 
L 1894 763 
L 2988 3500 
L 3597 3500 
L 2059 -325 
z
" transform="scale(0.015625)"/>
     </defs>
     <use xlink:href="#DejaVuSans-56"/>
     <use xlink:href="#DejaVuSans-69" transform="translate(66.158203 0)"/>
     <use xlink:href="#DejaVuSans-6f" transform="translate(93.941406 0)"/>
     <use xlink:href="#DejaVuSans-6c" transform="translate(155.123047 0)"/>
     <use xlink:href="#DejaVuSans-69" transform="translate(182.90625 0)"/>
     <use xlink:href="#DejaVuSans-6e" transform="translate(210.689453 0)"/>
     <use xlink:href="#DejaVuSans-20" transform="translate(274.068359 0)"/>
     <use xlink:href="#DejaVuSans-50" transform="translate(305.855469 0)"/>
     <use xlink:href="#DejaVuSans-6c" transform="translate(366.158203 0)"/>
     <use xlink:href="#DejaVuSans-6f" transform="translate(393.941406 0)"/>
     <use xlink:href="#DejaVuSans-74" transform="translate(455.123047 0)"/>
     <use xlink:href="#DejaVuSans-20" transform="translate(494.332031 0)"/>
     <use xlink:href="#DejaVuSans-6f" transform="translate(526.119141 0)"/>
     <use xlink:href="#DejaVuSans-66" transform="translate(587.300781 0)"/>
     <use xlink:href="#DejaVuSans-20" transform="translate(622.505859 0)"/>
     <use xlink:href="#DejaVuSans-70" transform="translate(654.292969 0)"/>
     <use xlink:href="#DejaVuSans-65" transform="translate(717.769531 0)"/>
     <use xlink:href="#DejaVuSans-72" transform="translate(779.292969 0)"/>
     <use xlink:href="#DejaVuSans-63" transform="translate(818.15625 0)"/>
     <use xlink:href="#DejaVuSans-65" transform="translate(873.136719 0)"/>
     <use xlink:href="#DejaVuSans-6e" transform="translate(934.660156 0)"/>
     <use xlink:href="#DejaVuSans-74" transform="translate(998.039062 0)"/>
     <use xlink:href="#DejaVuSans-61" transform="translate(1037.248047 0)"/>
     <use xlink:href="#DejaVuSans-67" transform="translate(1098.527344 0)"/>
     <use xlink:href="#DejaVuSans-65" transform="translate(1162.003906 0)"/>
     <use xlink:href="#DejaVuSans-20" transform="translate(1223.527344 0)"/>
     <use xlink:href="#DejaVuSans-6f" transform="translate(1255.314453 0)"/>
     <use xlink:href="#DejaVuSans-66" transform="translate(1316.496094 0)"/>
     <use xlink:href="#DejaVuSans-20" transform="translate(1351.701172 0)"/>
     <use xlink:href="#DejaVuSans-6a" transform="translate(1383.488281 0)"/>
     <use xlink:href="#DejaVuSans-6f" transform="translate(1411.271484 0)"/>
     <use xlink:href="#DejaVuSans-62" transform="translate(1472.453125 0)"/>
     <use xlink:href="#DejaVuSans-73" transform="translate(1535.929688 0)"/>
     <use xlink:href="#DejaVuSans-20" transform="translate(1588.029297 0)"/>
     <use xlink:href="#DejaVuSans-61" transform="translate(1619.816406 0)"/>
     <use xlink:href="#DejaVuSans-63" transform="translate(1681.095703 0)"/>
     <use xlink:href="#DejaVuSans-63" transform="translate(1736.076172 0)"/>
     <use xlink:href="#DejaVuSans-65" transform="translate(1791.056641 0)"/>
     <use xlink:href="#DejaVuSans-73" transform="translate(1852.580078 0)"/>
     <use xlink:href="#DejaVuSans-73" transform="translate(1904.679688 0)"/>
     <use xlink:href="#DejaVuSans-69" transform="translate(1956.779297 0)"/>
     <use xlink:href="#DejaVuSans-62" transform="translate(1984.5625 0)"/>
     <use xlink:href="#DejaVuSans-6c" transform="translate(2048.039062 0)"/>
     <use xlink:href="#DejaVuSans-65" transform="translate(2075.822266 0)"/>
     <use xlink:href="#DejaVuSans-20" transform="translate(2137.345703 0)"/>
     <use xlink:href="#DejaVuSans-77" transform="translate(2169.132812 0)"/>
     <use xlink:href="#DejaVuSans-69" transform="translate(2250.919922 0)"/>
     <use xlink:href="#DejaVuSans-74" transform="translate(2278.703125 0)"/>
     <use xlink:href="#DejaVuSans-68" transform="translate(2317.912109 0)"/>
     <use xlink:href="#DejaVuSans-69" transform="translate(2381.291016 0)"/>
     <use xlink:href="#DejaVuSans-6e" transform="translate(2409.074219 0)"/>
     <use xlink:href="#DejaVuSans-20" transform="translate(2472.453125 0)"/>
     <use xlink:href="#DejaVuSans-36" transform="translate(2504.240234 0)"/>
     <use xlink:href="#DejaVuSans-30" transform="translate(2567.863281 0)"/>
     <use xlink:href="#DejaVuSans-20" transform="translate(2631.486328 0)"/>
     <use xlink:href="#DejaVuSans-6d" transform="translate(2663.273438 0)"/>
     <use xlink:href="#DejaVuSans-69" transform="translate(2760.685547 0)"/>
     <use xlink:href="#DejaVuSans-6e" transform="translate(2788.46875 0)"/>
     <use xlink:href="#DejaVuSans-75" transform="translate(2851.847656 0)"/>
     <use xlink:href="#DejaVuSans-74" transform="translate(2915.226562 0)"/>
     <use xlink:href="#DejaVuSans-65" transform="translate(2954.435547 0)"/>
     <use xlink:href="#DejaVuSans-73" transform="translate(3015.958984 0)"/>
     <use xlink:href="#DejaVuSans-20" transform="translate(3068.058594 0)"/>
     <use xlink:href="#DejaVuSans-75" transform="translate(3099.845703 0)"/>
     <use xlink:href="#DejaVuSans-73" transform="translate(3163.224609 0)"/>
     <use xlink:href="#DejaVuSans-69" transform="translate(3215.324219 0)"/>
     <use xlink:href="#DejaVuSans-6e" transform="translate(3243.107422 0)"/>
     <use xlink:href="#DejaVuSans-67" transform="translate(3306.486328 0)"/>
     <use xlink:href="#DejaVuSans-20" transform="translate(3369.962891 0)"/>
     <use xlink:href="#DejaVuSans-70" transform="translate(3401.75 0)"/>
     <use xlink:href="#DejaVuSans-75" transform="translate(3465.226562 0)"/>
     <use xlink:href="#DejaVuSans-62" transform="translate(3528.605469 0)"/>
     <use xlink:href="#DejaVuSans-6c" transform="translate(3592.082031 0)"/>
     <use xlink:href="#DejaVuSans-69" transform="translate(3619.865234 0)"/>
     <use xlink:href="#DejaVuSans-63" transform="translate(3647.648438 0)"/>
     <use xlink:href="#DejaVuSans-20" transform="translate(3702.628906 0)"/>
     <use xlink:href="#DejaVuSans-74" transform="translate(3734.416016 0)"/>
     <use xlink:href="#DejaVuSans-72" transform="translate(3773.625 0)"/>
     <use xlink:href="#DejaVuSans-61" transform="translate(3814.738281 0)"/>
     <use xlink:href="#DejaVuSans-6e" transform="translate(3876.017578 0)"/>
     <use xlink:href="#DejaVuSans-73" transform="translate(3939.396484 0)"/>
     <use xlink:href="#DejaVuSans-70" transform="translate(3991.496094 0)"/>
     <use xlink:href="#DejaVuSans-6f" transform="translate(4054.972656 0)"/>
     <use xlink:href="#DejaVuSans-72" transform="translate(4116.154297 0)"/>
     <use xlink:href="#DejaVuSans-74" transform="translate(4157.267578 0)"/>
     <use xlink:href="#DejaVuSans-61" transform="translate(4196.476562 0)"/>
     <use xlink:href="#DejaVuSans-74" transform="translate(4257.755859 0)"/>
     <use xlink:href="#DejaVuSans-69" transform="translate(4296.964844 0)"/>
     <use xlink:href="#DejaVuSans-6f" transform="translate(4324.748047 0)"/>
     <use xlink:href="#DejaVuSans-6e" transform="translate(4385.929688 0)"/>
     <use xlink:href="#DejaVuSans-20" transform="translate(4449.308594 0)"/>
     <use xlink:href="#DejaVuSans-62" transform="translate(4481.095703 0)"/>
     <use xlink:href="#DejaVuSans-79" transform="translate(4544.572266 0)"/>
     <use xlink:href="#DejaVuSans-20" transform="translate(4603.751953 0)"/>
     <use xlink:href="#DejaVuSans-7a" transform="translate(4635.539062 0)"/>
     <use xlink:href="#DejaVuSans-6f" transform="translate(4688.029297 0)"/>
     <use xlink:href="#DejaVuSans-6e" transform="translate(4749.210938 0)"/>
     <use xlink:href="#DejaVuSans-65" transform="translate(4812.589844 0)"/>
    </g>
   </g>
  </g>
 </g>
 <defs>
  <clipPath id="p9413ee5604">
   <rect x="89.887812" y="22.318125" width="419.51" height="276.65875"/>
  </clipPath>
 </defs>
</svg>
